HIERARCHY
ROOT Hips
{
	OFFSET 0 93.02 0
	CHANNELS 6 Xposition Yposition Zposition Yrotation Xrotation Zrotation 
	JOINT RightUpLeg
	{
		OFFSET -9.25 -1.59 0
		CHANNELS 6 Xposition Yposition Zposition Yrotation Xrotation Zrotation 
		JOINT RightLeg
		{
			OFFSET 0 -41.87 0
			CHANNELS 6 Xposition Yposition Zposition Yrotation Xrotation Zrotation 
			JOINT RightFoot
			{
				OFFSET 0 -41.87 0
				CHANNELS 6 Xposition Yposition Zposition Yrotation Xrotation Zrotation 
				End Site
				{
					OFFSET 0 -7.69 17.5
				}
			}
		}
	}
	JOINT LeftUpLeg
	{
		OFFSET 9.25 -1.59 0
		CHANNELS 6 Xposition Yposition Zposition Yrotation Xrotation Zrotation 
		JOINT LeftLeg
		{
			OFFSET 0 -41.87 0
			CHANNELS 6 Xposition Yposition Zposition Yrotation Xrotation Zrotation 
			JOINT LeftFoot
			{
				OFFSET 0 -41.87 0
				CHANNELS 6 Xposition Yposition Zposition Yrotation Xrotation Zrotation 
				End Site
				{
					OFFSET 0 -7.69 17.5
				}
			}
		}
	}
	JOINT Spine
	{
		OFFSET 0 14.307 0
		CHANNELS 6 Xposition Yposition Zposition Yrotation Xrotation Zrotation 
		JOINT Spine1
		{
			OFFSET 0 9.718 0
			CHANNELS 6 Xposition Yposition Zposition Yrotation Xrotation Zrotation 
			JOINT Spine2
			{
				OFFSET 0 10.12 0
				CHANNELS 6 Xposition Yposition Zposition Yrotation Xrotation Zrotation 
				JOINT Spine3
				{
					OFFSET 0 9.718 0
					CHANNELS 6 Xposition Yposition Zposition Yrotation Xrotation Zrotation 
					JOINT Neck
					{
						OFFSET 0 10.387 0
						CHANNELS 6 Xposition Yposition Zposition Yrotation Xrotation Zrotation 
						JOINT Head
						{
							OFFSET 0 9.47 0
							CHANNELS 6 Xposition Yposition Zposition Yrotation Xrotation Zrotation 
							End Site
							{
								OFFSET 0 15.95 0
							}
						}
					}
					JOINT RightShoulder
					{
						OFFSET -3.2 6.925 0
						CHANNELS 6 Xposition Yposition Zposition Yrotation Xrotation Zrotation 
						JOINT RightArm
						{
							OFFSET -12.8 0 0
							CHANNELS 6 Xposition Yposition Zposition Yrotation Xrotation Zrotation 
							JOINT RightForeArm
							{
								OFFSET -26.5 0 0
								CHANNELS 6 Xposition Yposition Zposition Yrotation Xrotation Zrotation 
								JOINT RightHand
								{
									OFFSET -26 0 0
									CHANNELS 6 Xposition Yposition Zposition Yrotation Xrotation Zrotation 
									JOINT RightHandThumb1
									{
										OFFSET -2.489 0.19 3.121
										CHANNELS 6 Xposition Yposition Zposition Yrotation Xrotation Zrotation 
										JOINT RightHandThumb2
										{
											OFFSET -3.683 0 0
											CHANNELS 6 Xposition Yposition Zposition Yrotation Xrotation Zrotation 
											JOINT RightHandThumb3
											{
												OFFSET -2.558 0 0
												CHANNELS 6 Xposition Yposition Zposition Yrotation Xrotation Zrotation 
												End Site
												{
													OFFSET -2.194 0 0
												}
											}
										}
									}
									JOINT RightInHandIndex
									{
										OFFSET -3.224 0.508 1.978
										CHANNELS 6 Xposition Yposition Zposition Yrotation Xrotation Zrotation 
										JOINT RightHandIndex1
										{
											OFFSET -5.217 -0.091 0.999
											CHANNELS 6 Xposition Yposition Zposition Yrotation Xrotation Zrotation 
											JOINT RightHandIndex2
											{
												OFFSET -3.619 0 0
												CHANNELS 6 Xposition Yposition Zposition Yrotation Xrotation Zrotation 
												JOINT RightHandIndex3
												{
													OFFSET -2.052 0 0
													CHANNELS 6 Xposition Yposition Zposition Yrotation Xrotation Zrotation 
													End Site
													{
														OFFSET -1.805 0 0
													}
												}
											}
										}
									}
									JOINT RightInHandMiddle
									{
										OFFSET -3.382 0.517 0.757
										CHANNELS 6 Xposition Yposition Zposition Yrotation Xrotation Zrotation 
										JOINT RightHandMiddle1
										{
											OFFSET -5.174 -0.084 0.314
											CHANNELS 6 Xposition Yposition Zposition Yrotation Xrotation Zrotation 
											JOINT RightHandMiddle2
											{
												OFFSET -3.949 0 0
												CHANNELS 6 Xposition Yposition Zposition Yrotation Xrotation Zrotation 
												JOINT RightHandMiddle3
												{
													OFFSET -2.476 0 0
													CHANNELS 6 Xposition Yposition Zposition Yrotation Xrotation Zrotation 
													End Site
													{
														OFFSET -1.975 0 0
													}
												}
											}
										}
									}
									JOINT RightInHandRing
									{
										OFFSET -3.365 0.538 -0.129
										CHANNELS 6 Xposition Yposition Zposition Yrotation Xrotation Zrotation 
										JOINT RightHandRing1
										{
											OFFSET -4.635 -0.022 -0.479
											CHANNELS 6 Xposition Yposition Zposition Yrotation Xrotation Zrotation 
											JOINT RightHandRing2
											{
												OFFSET -3.442 0 0
												CHANNELS 6 Xposition Yposition Zposition Yrotation Xrotation Zrotation 
												JOINT RightHandRing3
												{
													OFFSET -2.388 0 0
													CHANNELS 6 Xposition Yposition Zposition Yrotation Xrotation Zrotation 
													End Site
													{
														OFFSET -1.857 0 0
													}
												}
											}
										}
									}
									JOINT RightInHandPinky
									{
										OFFSET -3.161 0.469 -1.202
										CHANNELS 6 Xposition Yposition Zposition Yrotation Xrotation Zrotation 
										JOINT RightHandPinky1
										{
											OFFSET -4.141 -0.022 -1.091
											CHANNELS 6 Xposition Yposition Zposition Yrotation Xrotation Zrotation 
											JOINT RightHandPinky2
											{
												OFFSET -2.757 0 0
												CHANNELS 6 Xposition Yposition Zposition Yrotation Xrotation Zrotation 
												JOINT RightHandPinky3
												{
													OFFSET -1.742 0 0
													CHANNELS 6 Xposition Yposition Zposition Yrotation Xrotation Zrotation 
													End Site
													{
														OFFSET -1.645 0 0
													}
												}
											}
										}
									}
								}
							}
						}
					}
					JOINT LeftShoulder
					{
						OFFSET 3.2 6.925 0
						CHANNELS 6 Xposition Yposition Zposition Yrotation Xrotation Zrotation 
						JOINT LeftArm
						{
							OFFSET 12.8 0 0
							CHANNELS 6 Xposition Yposition Zposition Yrotation Xrotation Zrotation 
							JOINT LeftForeArm
							{
								OFFSET 26.5 0 0
								CHANNELS 6 Xposition Yposition Zposition Yrotation Xrotation Zrotation 
								JOINT LeftHand
								{
									OFFSET 26 0 0
									CHANNELS 6 Xposition Yposition Zposition Yrotation Xrotation Zrotation 
									JOINT LeftHandThumb1
									{
										OFFSET 2.489 0.19 3.121
										CHANNELS 6 Xposition Yposition Zposition Yrotation Xrotation Zrotation 
										JOINT LeftHandThumb2
										{
											OFFSET 3.683 0 0
											CHANNELS 6 Xposition Yposition Zposition Yrotation Xrotation Zrotation 
											JOINT LeftHandThumb3
											{
												OFFSET 2.558 0 0
												CHANNELS 6 Xposition Yposition Zposition Yrotation Xrotation Zrotation 
												End Site
												{
													OFFSET 2.194 0 0
												}
											}
										}
									}
									JOINT LeftInHandIndex
									{
										OFFSET 3.224 0.508 1.978
										CHANNELS 6 Xposition Yposition Zposition Yrotation Xrotation Zrotation 
										JOINT LeftHandIndex1
										{
											OFFSET 5.217 -0.091 0.999
											CHANNELS 6 Xposition Yposition Zposition Yrotation Xrotation Zrotation 
											JOINT LeftHandIndex2
											{
												OFFSET 3.619 0 0
												CHANNELS 6 Xposition Yposition Zposition Yrotation Xrotation Zrotation 
												JOINT LeftHandIndex3
												{
													OFFSET 2.052 0 0
													CHANNELS 6 Xposition Yposition Zposition Yrotation Xrotation Zrotation 
													End Site
													{
														OFFSET 1.805 0 0
													}
												}
											}
										}
									}
									JOINT LeftInHandMiddle
									{
										OFFSET 3.382 0.517 0.757
										CHANNELS 6 Xposition Yposition Zposition Yrotation Xrotation Zrotation 
										JOINT LeftHandMiddle1
										{
											OFFSET 5.174 -0.084 0.314
											CHANNELS 6 Xposition Yposition Zposition Yrotation Xrotation Zrotation 
											JOINT LeftHandMiddle2
											{
												OFFSET 3.949 0 0
												CHANNELS 6 Xposition Yposition Zposition Yrotation Xrotation Zrotation 
												JOINT LeftHandMiddle3
												{
													OFFSET 2.476 0 0
													CHANNELS 6 Xposition Yposition Zposition Yrotation Xrotation Zrotation 
													End Site
													{
														OFFSET 1.975 0 0
													}
												}
											}
										}
									}
									JOINT LeftInHandRing
									{
										OFFSET 3.365 0.538 -0.129
										CHANNELS 6 Xposition Yposition Zposition Yrotation Xrotation Zrotation 
										JOINT LeftHandRing1
										{
											OFFSET 4.635 -0.022 -0.479
											CHANNELS 6 Xposition Yposition Zposition Yrotation Xrotation Zrotation 
											JOINT LeftHandRing2
											{
												OFFSET 3.442 0 0
												CHANNELS 6 Xposition Yposition Zposition Yrotation Xrotation Zrotation 
												JOINT LeftHandRing3
												{
													OFFSET 2.388 0 0
													CHANNELS 6 Xposition Yposition Zposition Yrotation Xrotation Zrotation 
													End Site
													{
														OFFSET 1.857 0 0
													}
												}
											}
										}
									}
									JOINT LeftInHandPinky
									{
										OFFSET 3.161 0.469 -1.202
										CHANNELS 6 Xposition Yposition Zposition Yrotation Xrotation Zrotation 
										JOINT LeftHandPinky1
										{
											OFFSET 4.141 -0.022 -1.091
											CHANNELS 6 Xposition Yposition Zposition Yrotation Xrotation Zrotation 
											JOINT LeftHandPinky2
											{
												OFFSET 2.757 0 0
												CHANNELS 6 Xposition Yposition Zposition Yrotation Xrotation Zrotation 
												JOINT LeftHandPinky3
												{
													OFFSET 1.742 0 0
													CHANNELS 6 Xposition Yposition Zposition Yrotation Xrotation Zrotation 
													End Site
													{
														OFFSET 1.645 0 0
													}
												}
											}
										}
									}
								}
							}
						}
					}
				}
			}
		}
	}
}
MOTION
Frames: 4
Frame Time: 0.008
0 93.02 0 0 0 0 -9.25 -1.59 0 0 0 0 0 -41.87 0 0 0 0 0 -41.87 0 0 0 0 9.25 -1.59 0 0 0 0 0 -41.87 0 0 0 0 0 -41.87 0 0 0 0 0 14.307 0 0 0 0 0 9.718 0 0 0 0 0 10.12 0 0 0 0 0 9.718 0 0 0 0 0 10.387 0 0 0 0 0 9.47 0 0 0 0 -3.2 6.925 0 0 0 0 -12.8 0 0 0 0 0 -26.5 0 0 0 0 0 -26 0 0 0 0 0 -2.489 0.19 3.121 0 0 0 -3.683 0 0 0 0 0 -2.558 0 0 0 0 0 -3.224 0.508 1.978 0 0 0 -5.217 -0.091 0.999 0 0 0 -3.619 0 0 0 0 0 -2.052 0 0 0 0 0 -3.382 0.517 0.757 0 0 0 -5.174 -0.084 0.314 0 0 0 -3.949 0 0 0 0 0 -2.476 0 0 0 0 0 -3.365 0.538 -0.129 0 0 0 -4.635 -0.022 -0.479 0 0 0 -3.442 0 0 0 0 0 -2.388 0 0 0 0 0 -3.161 0.469 -1.202 0 0 0 -4.141 -0.022 -1.091 0 0 0 -2.757 0 0 0 0 0 -1.742 0 0 0 0 0 3.2 6.925 0 0 0 0 12.8 0 0 0 0 0 26.5 0 0 0 0 0 26 0 0 0 0 0 2.489 0.19 3.121 0 0 0 3.683 0 0 0 0 0 2.558 0 0 0 0 0 3.224 0.508 1.978 0 0 0 5.217 -0.091 0.999 0 0 0 3.619 0 0 0 0 0 2.052 0 0 0 0 0 3.382 0.517 0.757 0 0 0 5.174 -0.084 0.314 0 0 0 3.949 0 0 0 0 0 2.476 0 0 0 0 0 3.365 0.538 -0.129 0 0 0 4.635 -0.022 -0.479 0 0 0 3.442 0 0 0 0 0 2.388 0 0 0 0 0 3.161 0.469 -1.202 0 0 0 4.141 -0.022 -1.091 0 0 0 2.757 0 0 0 0 0 1.742 0 0 0 0 0 
-16.3449 92.2085 1.04031 174.608 1.14674 4.36119 -9.20566 -1.60718 0.0406264 -21.7342 -15.8232 -18.5812 0.126629 -41.8708 0.0158572 -5.45971 19.1922 3.13158 0.477578 -41.5589 -1.62851 0.00139356 -2.39032 -0.0322154 9.34722 -1.57369 0.0886725 12.1349 -14.8325 6.64593 0.0953757 -41.9242 0.157831 2.13273 20.7854 -4.82615 -0.733264 -42.1285 -0.314652 0.00104065 -2.39957 0.0246361 -0.037192 14.3105 -0.0148135 0.740491 10.3072 -2.73028 -0.0296049 9.71251 0.0350781 0.154078 2.5883 -0.693506 -0.0264436 10.1267 0.0899833 0.171415 4.27059 -1.14896 -0.03844 9.72036 0.0762284 0.00092012 0.203168 0.211191 -0.000771272 10.3871 0.000341007 0.00162944 0.203517 0.211268 -0.00936904 9.46456 -0.0335909 0.273805 3.65497 3.81746 -3.20193 6.91147 0.00261629 29.7057 -8.30242 -0.43854 -12.7696 -0.0991213 -0.154582 6.92979 -37.7944 57.1812 -26.4582 -0.303007 -0.0810213 35.4514 -27.7076 9.79205 -25.9282 -0.186922 -0.184436 -20.7724 -19.9941 -15.331 -2.48905 0.190105 3.12053 21.86 -0 30 -3.68274 0 0 -10 -0 0 -2.55832 0 0 -10 -0 0 -3.22368 0.508421 1.97842 0 -0 0 -5.21684 -0.0913684 0.999158 2.55 -0 20 -3.61937 0 0 0 -0 24 -2.05211 0 0 0 -0 20 -3.38211 0.517263 0.756737 0 -0 0 -5.1741 -0.084 0.313895 0 -0 20 -3.94947 0 0 0 -0 24 -2.47579 0 0 0 -0 20 -3.36516 0.537895 -0.128947 0 -0 0 -4.63474 -0.0221053 -0.478947 -3 -0 20 -3.44238 0 0 0 -0 24 -2.38811 0 0 0 -0 20 -3.16105 0.469368 -1.20179 0 -0 0 -4.14105 -0.0221053 -1.09053 -8.83 -0 20 -2.75653 0 0 0 -0 24 -1.74189 0 0 0 -0 20 3.18309 6.93831 0.0121531 -5.62353 1.14118 -4.80687 12.7345 0.00213271 -0.052986 8.73314 -9.14859 -85.8571 26.5617 0.0291164 -0.0569466 -71.5063 -14.3744 -6.26386 25.917 -0.0351801 -0.128521 2.78573 -5.10419 30.7262 2.48905 0.190105 3.12053 -21.86 -0 -30 3.68274 0 0 10 -0 0 2.55832 0 0 10 -0 0 3.22368 0.508421 1.97842 0 -0 0 5.21684 -0.0913684 0.999158 -2.55 -0 -20 3.61937 0 0 0 -0 -24 2.05211 0 0 0 -0 -20 3.38211 0.517263 0.756737 0 -0 0 5.1741 -0.084 0.313895 0 -0 -20 3.94947 0 0 0 -0 -24 2.47579 0 0 0 -0 -20 3.36516 0.537895 -0.128947 0 -0 0 4.63474 -0.0221053 -0.478947 3 -0 -20 3.44238 0 0 0 -0 -24 2.38811 0 0 0 -0 -20 3.16105 0.469368 -1.20179 0 -0 0 4.14105 -0.0221053 -1.09053 8.83 -0 -20 2.75653 0 0 0 -0 -24 1.74189 0 0 0 -0 -20 
-16.2997 92.2077 1.03116 174.556 1.15989 4.42551 -9.2074 -1.60622 0.0377021 -21.8483 -15.9977 -18.5838 0.119325 -41.8745 0.0154207 -5.2952 19.4361 3.17549 0.452329 -41.531 -1.56655 0.00139387 -2.39032 -0.0322137 9.35584 -1.57152 0.0926161 12.1541 -14.8839 6.59521 0.100937 -41.9275 0.172733 2.14244 20.8831 -4.83927 -0.692803 -42.1558 -0.346917 0.00104279 -2.39956 0.0246396 -0.0329171 14.3107 -0.0149087 0.74756 10.3806 -2.72031 -0.0257847 9.71303 0.0326159 0.155729 2.60683 -0.691203 -0.0244478 10.1268 0.0858598 0.173869 4.30055 -1.14503 -0.035403 9.72051 0.070853 -0.00422584 0.197115 0.20913 0.00366855 10.3859 -0.0086156 -0.00355066 0.197475 0.209204 -0.00728169 9.46408 -0.0390353 0.170484 3.55274 3.77671 -3.19888 6.91143 0.00237873 29.3228 -8.23258 -0.30048 -12.772 -0.0927031 -0.144093 6.93449 -37.4974 57.5543 -26.4566 -0.294392 -0.070474 35.7543 -27.3928 9.97117 -25.9303 -0.178008 -0.171838 -20.6991 -20.0254 -15.4183 -2.48905 0.190105 3.12053 21.86 -0 30 -3.68274 0 0 -10 -0 0 -2.55832 0 0 -10 -0 0 -3.22368 0.508421 1.97842 0 -0 0 -5.21684 -0.0913684 0.999158 2.55 -0 20 -3.61937 0 0 0 -0 24 -2.05211 0 0 0 -0 20 -3.38211 0.517263 0.756737 0 -0 0 -5.1741 -0.084 0.313895 0 -0 20 -3.94947 0 0 0 -0 24 -2.47579 0 0 0 -0 20 -3.36516 0.537895 -0.128947 0 -0 0 -4.63474 -0.0221053 -0.478947 -3 -0 20 -3.44238 0 0 0 -0 24 -2.38811 0 0 0 -0 20 -3.16105 0.469368 -1.20179 0 -0 0 -4.14105 -0.0221053 -1.09053 -8.83 -0 20 -2.75653 0 0 0 -0 24 -1.74189 0 0 0 -0 20 3.18456 6.93688 0.00801637 -5.66208 1.01702 -4.91874 12.7353 0.000848218 -0.0565964 8.62244 -9.16666 -85.9283 26.5588 0.0343414 -0.0578567 -71.3981 -14.4605 -6.22837 25.917 -0.0327748 -0.120651 2.70888 -5.14758 30.7682 2.48905 0.190105 3.12053 -21.86 -0 -30 3.68274 0 0 10 -0 0 2.55832 0 0 10 -0 0 3.22368 0.508421 1.97842 0 -0 0 5.21684 -0.0913684 0.999158 -2.55 -0 -20 3.61937 0 0 0 -0 -24 2.05211 0 0 0 -0 -20 3.38211 0.517263 0.756737 0 -0 0 5.1741 -0.084 0.313895 0 -0 -20 3.94947 0 0 0 -0 -24 2.47579 0 0 0 -0 -20 3.36516 0.537895 -0.128947 0 -0 0 4.63474 -0.0221053 -0.478947 3 -0 -20 3.44238 0 0 0 -0 -24 2.38811 0 0 0 -0 -20 3.16105 0.469368 -1.20179 0 -0 0 4.14105 -0.0221053 -1.09053 8.83 -0 -20 2.75653 0 0 0 -0 -24 1.74189 0 0 0 -0 -20 
-16.2494 92.2061 1.02928 174.488 1.17715 4.48717 -9.20726 -1.6058 0.0382506 -21.9686 -16.176 -18.585 0.120905 -41.8785 0.0197951 -5.1338 19.6724 3.21885 0.437192 -41.5031 -1.50862 0.00138964 -2.39032 -0.0322107 9.35942 -1.56981 0.0989669 12.1687 -14.9362 6.55968 0.102136 -41.9288 0.182782 2.1786 20.9647 -4.86187 -0.642508 -42.1868 -0.384827 0.00104557 -2.39957 0.0246365 -0.0290472 14.3109 -0.0144066 0.762155 10.4519 -2.71348 -0.0235853 9.71373 0.0299811 0.159229 2.62486 -0.689808 -0.0252313 10.1268 0.0812619 0.179312 4.32975 -1.14256 -0.0352781 9.72076 0.0652969 -0.00986074 0.191439 0.207802 0.00589872 10.3845 -0.016399 -0.00921685 0.191824 0.207873 -0.004701 9.46362 -0.0422251 0.0598129 3.458 3.7492 -3.19776 6.9117 0.00208338 28.9458 -8.15776 -0.185396 -12.7759 -0.0807883 -0.126432 6.87945 -37.2181 57.9341 -26.4538 -0.284779 -0.051086 36.0361 -27.0971 10.1897 -25.9314 -0.16891 -0.160025 -20.598 -20.0647 -15.483 -2.48905 0.190105 3.12053 21.86 -0 30 -3.68274 0 0 -10 -0 0 -2.55832 0 0 -10 -0 0 -3.22368 0.508421 1.97842 0 -0 0 -5.21684 -0.0913684 0.999158 2.55 -0 20 -3.61937 0 0 0 -0 24 -2.05211 0 0 0 -0 20 -3.38211 0.517263 0.756737 0 -0 0 -5.1741 -0.084 0.313895 0 -0 20 -3.94947 0 0 0 -0 24 -2.47579 0 0 0 -0 20 -3.36516 0.537895 -0.128947 0 -0 0 -4.63474 -0.0221053 -0.478947 -3 -0 20 -3.44238 0 0 0 -0 24 -2.38811 0 0 0 -0 20 -3.16105 0.469368 -1.20179 0 -0 0 -4.14105 -0.0221053 -1.09053 -8.83 -0 20 -2.75653 0 0 0 -0 24 -1.74189 0 0 0 -0 20 3.18461 6.93693 0.0029242 -5.7011 0.873078 -5.01985 12.7353 0.000919324 -0.059495 8.47927 -9.17699 -85.9902 26.5582 0.036956 -0.0579013 -71.2832 -14.566 -6.19145 25.9172 -0.0319922 -0.116335 2.62402 -5.19318 30.8148 2.48905 0.190105 3.12053 -21.86 -0 -30 3.68274 0 0 10 -0 0 2.55832 0 0 10 -0 0 3.22368 0.508421 1.97842 0 -0 0 5.21684 -0.0913684 0.999158 -2.55 -0 -20 3.61937 0 0 0 -0 -24 2.05211 0 0 0 -0 -20 3.38211 0.517263 0.756737 0 -0 0 5.1741 -0.084 0.313895 0 -0 -20 3.94947 0 0 0 -0 -24 2.47579 0 0 0 -0 -20 3.36516 0.537895 -0.128947 0 -0 0 4.63474 -0.0221053 -0.478947 3 -0 -20 3.44238 0 0 0 -0 -24 2.38811 0 0 0 -0 -20 3.16105 0.469368 -1.20179 0 -0 0 4.14105 -0.0221053 -1.09053 8.83 -0 -20 2.75653 0 0 0 -0 -24 1.74189 0 0 0 -0 -20 
